<svg
              xmlns="http://www.w3.org/2000/svg"
              width="128"
              height="128"
              xml:space="preserve"
            >
              <path
                fill="#282D33"
                d="M63.999 101.696c-20.479 0-37.141-16.911-37.141-37.696 0-20.786 16.662-37.696 37.141-37.696 20.48 0 37.14 16.91 37.14 37.696 0 20.785-16.66 37.696-37.14 37.696zm0-71.383C45.73 30.313 30.867 45.425 30.867 64c0 18.575 14.863 33.687 33.132 33.687S97.131 82.575 97.131 64c0-18.575-14.863-33.687-33.132-33.687z"
              />
              <path
                fill="#282D33"
                d="M64 89.908c-14.081 0-25.536-11.622-25.536-25.908 0-14.286 11.456-25.908 25.536-25.908S89.535 49.714 89.535 64c0 14.286-11.455 25.908-25.535 25.908zm0-47.806c-11.87 0-21.526 9.824-21.526 21.898 0 12.075 9.657 21.899 21.526 21.899S85.527 76.075 85.527 64c0-12.075-9.658-21.898-21.527-21.898zM56.68 13.913 53.824 11.1 64.758 0l10.931 11.1-2.855 2.813-8.076-8.2z"
              />
              <path
                fill="#282D33"
                d="M62.753 4.767h4.009v16.331h-4.009zM23.972 33.87l-4.01-.001.005-15.655 15.443-.005.001 4.01-11.435.003z"
              />
              <path
                fill="#282D33"
                d="m24.729 20.164 11.37 11.548-2.858 2.813-11.37-11.548zM11.874 74.293.996 63.23l10.879-11.062 2.857 2.811-8.113 8.251 8.114 8.251z"
              />
              <path
                fill="#282D33"
                d="M5.686 61.224h16.08v4.009H5.686zM34.336 108.7l-15.442-.006-.004-15.652 4.009-.002.004 11.648 11.434.003z"
              />
              <path
                fill="#282D33"
                d="m32.163 92.383 2.858 2.812-11.368 11.552-2.858-2.812z"
              />
              <g>
                <path
                  fill="#282D33"
                  d="m92.588 109.789-.002-4.01 11.435-.003.006-11.646 4.01.002-.008 15.652z"
                />
                <path
                  fill="#282D33"
                  d="m94.753 93.479 11.37 11.546-2.857 2.814-11.37-11.546z"
                />
              </g>
              <g>
                <path
                  fill="#282D33"
                  d="m116.121 75.832-2.857-2.811 8.117-8.25-8.117-8.251 2.857-2.812 10.883 11.063z"
                />
                <path fill="#282D33" d="M106.23 62.768h16.08v4.01h-16.08z" />
              </g>
              <g>
                <path
                  fill="#282D33"
                  d="m63.241 128-10.934-11.098 2.857-2.813 8.077 8.198 8.077-8.198 2.856 2.813z"
                />
                <path fill="#282D33" d="M61.235 106.9h4.009v16.334h-4.009z" />
              </g>
              <g>
                <path
                  fill="#282D33"
                  d="m105.098 34.96-.004-11.646-11.436-.006.002-4.009 15.44.007.007 15.652z"
                />
                <path
                  fill="#282D33"
                  d="m104.339 21.257 2.857 2.812-11.368 11.55-2.858-2.812z"
                />
              </g>
              <g>
                <path
                  fill="#282D33"
                  d="m65.602 67.292-5.514-2.189c-2.34-1.508-2.831-3.205-2.831-4.363v-2.337c0-3 2.416-5.442 5.385-5.442h2.717c2.969 0 5.385 2.441 5.385 5.442v1.093h-4.01v-1.093c0-.79-.617-1.433-1.375-1.433h-2.717c-.759 0-1.376.643-1.376 1.433v2.337c0 .085.159.42.837.889l4.953 1.927-1.454 3.736z"
                />
                <path
                  fill="#282D33"
                  d="M65.359 76.117h-2.717c-2.97 0-5.385-2.439-5.385-5.437v-1.098h4.009v1.098c0 .787.617 1.427 1.376 1.427h2.717c.758 0 1.375-.64 1.375-1.427v-2.343c-.002-.07-.178-.446-.898-.946l-4.717-1.844 1.459-3.735 5.277 2.107c2.387 1.543 2.889 3.255 2.889 4.418v2.343c0 2.998-2.416 5.437-5.385 5.437zM62.2 50.263h4.009v5.131H62.2z"
                />
                <path fill="#282D33" d="M62.2 73.285h4.009v5.13H62.2z" />
              </g>
            </svg>